<?xml version="1.0" encoding="UTF-8" standalone="no"?>
<!-- Created with Inkscape (http://www.inkscape.org/) -->

<svg
   width="32"
   height="32"
   viewBox="0 0 32 32"
   version="1.1"
   id="svg1"
   xml:space="preserve"
   xmlns="http://www.w3.org/2000/svg"
   xmlns:svg="http://www.w3.org/2000/svg"><defs
     id="defs1" /><g
     id="layer1"><g
       style="fill:none"
       id="g1"
       transform="matrix(0.80785939,0,0,0.81582798,0.69871533,4.282348)"><path
         d="M 11.8084,6.27986 H 4.37953 c -1.47799,0 -2.67595,1.19796 -2.67595,2.67595 V 10.146 H 0.894575 C 0.396725,10.146 0,10.5505 0,11.0406 v 3.3527 c 0,0.4978 0.404504,0.8945 0.894575,0.8945 H 1.70358 v 1.0269 c 0,1.478 1.19796,2.6759 2.67595,2.6759 H 5.04852 L 8.10563,29.1654 8.56459,29.0565 10.1126,28.6909 10.5715,28.582 9.35804,18.9906 h 2.45036 v -1.1124 c 3.2516,0.529 8.619,1.9059 12.3685,5.4608 0.0389,0.6612 0.6223,1.1746 1.3146,1.0969 0.599,-0.0701 1.0346,-0.6224 1.0346,-1.2291 v -6.8844 c 1.5091,-0.56 2.5826,-2.0147 2.5826,-3.7105 0,-1.7036 -1.0735,-3.15046 -2.5826,-3.71054 V 2.07147 c 0,-0.60675 -0.4278,-1.159057 -1.0346,-1.229068 C 24.7992,0.764613 24.2235,1.27802 24.1769,1.93923 20.4274,5.49419 15.06,6.87106 11.8084,7.40003 Z"
         fill="#ffffff"
         id="path1" /></g><g
       id="g6"
       transform="translate(1.5644501,0.09876543)"><g
         id="g5"><g
           style="fill:none"
           id="g2"
           transform="translate(22.645356,13.13611)"><path
             d="m 0.512451,1.40964 v 0.03112 c 0,0.58342 0.474513,1.06571 1.065709,1.06571 h 4.35619 c 0.58342,0 1.06572,-0.47451 1.06572,-1.06571 V 1.40964 c 0,-0.583414 -0.47452,-1.065707 -1.06572,-1.065707 H 1.57816 c -0.591196,0 -1.065709,0.474514 -1.065709,1.065707 z"
             fill="#ffffff"
             id="path1-6" /></g></g><g
         style="fill:none"
         id="g3"
         transform="translate(22.225434,9.2315232)"><path
           d="M 5.72855,0.147616 1.60572,1.78897 C 1.08453,1.999 0.812271,2.56686 0.983407,3.1036 1.1701,3.68702 1.81575,3.99818 2.39139,3.76481 L 6.51422,2.12346 C 7.0354,1.91343 7.30767,1.34557 7.13653,0.808824 6.94206,0.225406 6.29641,-0.0779721 5.72855,0.147616 Z"
           fill="#ffffff"
           id="path1-2" /></g><g
         style="fill:none"
         id="g4"
         transform="translate(22.230194,16.037523)"><path
           d="M 1.59797,2.06145 5.72079,3.7028 C 6.29643,3.92839 6.9343,3.62501 7.12878,3.04159 7.29991,2.51263 7.02765,1.93699 6.50646,1.72696 L 2.38364,0.0856047 C 1.808,-0.139984 1.17013,0.163394 0.975657,0.746813 0.812299,1.28356 1.07678,1.8592 1.59797,2.06145 Z"
           fill="#ffffff"
           id="path1-3" /></g></g></g></svg>
