<svg width="47" height="47" viewBox="0 0 47 47" fill="none" xmlns="http://www.w3.org/2000/svg">
<g clip-path="url(#clip0_64_259)" filter="url(#filter0_d_64_259)">
<path fill-rule="evenodd" clip-rule="evenodd" d="M23.5 0C24.6731 0 25.736 0.474773 26.5053 1.24066C27.2738 2.00655 27.7502 3.06583 27.7502 4.23562C27.7502 4.63799 27.6936 5.02741 27.5881 5.39702C27.6676 5.43055 27.7449 5.47475 27.8168 5.53039L36.8541 12.5247C36.9099 12.5682 36.9596 12.6162 37.0039 12.6672H40.049C41.6679 12.6672 43 13.9948 43 15.6088V36.0599C43 36.8692 42.6681 37.6046 42.1336 38.1373C41.5998 38.6693 40.8611 39 40.049 39H6.94641C6.13812 39 5.40324 38.67 4.86947 38.1396C4.33571 37.6107 4.00612 36.8776 4.00382 36.0668L4 15.6088C4 13.9894 5.326 12.6672 6.951 12.6672H9.99606C10.0404 12.6162 10.0901 12.5682 10.1459 12.5247L19.1825 5.53039C19.2527 5.47606 19.3299 5.43121 19.4119 5.39702C19.3043 5.01921 19.25 4.62833 19.2505 4.23562C19.2505 3.06583 19.7262 2.00655 20.4955 1.24066C21.264 0.474011 22.3262 0 23.5 0ZM11.1408 28.0048C10.7279 28.0048 10.3929 27.671 10.3929 27.2602C10.3929 26.8487 10.7279 26.5157 11.1408 26.5157H35.8592C36.2721 26.5157 36.6071 26.8487 36.6071 27.2602C36.6071 27.671 36.2721 28.0048 35.8592 28.0048H11.1408ZM13.7875 23.1709L12.5907 21.4402C12.5494 21.3831 12.5234 21.2589 12.5127 21.0661H12.4814V23.1709H10.9168V18.299H12.3881L13.5841 20.0296C13.6261 20.0868 13.6521 20.2118 13.6621 20.4038H13.6934V18.299H15.258V23.1709H13.7875ZM16.0992 20.7391C16.0992 19.8506 16.2659 19.202 16.5993 18.7943C16.9335 18.3866 17.5353 18.1824 18.4063 18.1824C19.2765 18.1824 19.8791 18.3866 20.2125 18.7943C20.5459 19.202 20.7134 19.8506 20.7134 20.7391C20.7134 21.1804 20.6782 21.5523 20.6079 21.854C20.5375 22.1551 20.4159 22.4172 20.2439 22.6405C20.0718 22.8646 19.8348 23.0284 19.5327 23.1321C19.2299 23.2357 18.8544 23.2883 18.4063 23.2883C17.9574 23.2883 17.5819 23.2357 17.2799 23.1321C16.9771 23.0284 16.74 22.8646 16.5679 22.6405C16.3959 22.4172 16.2743 22.1551 16.2047 21.854C16.1336 21.5523 16.0992 21.1804 16.0992 20.7391ZM17.78 19.9283V21.9546H18.4292C18.6434 21.9546 18.7986 21.9303 18.8949 21.8807C18.9913 21.832 19.0395 21.7184 19.0395 21.5424V19.5152H18.3826C18.1738 19.5152 18.0216 19.5396 17.9245 19.5899C17.8289 19.6387 17.78 19.7522 17.78 19.9283ZM25.0348 19.5465H23.9007V23.1709H22.3361V19.5465H21.2021V18.299H25.0348V19.5465ZM25.7582 23.1709V18.299H27.3228V23.1709H25.7582ZM31.6441 21.7763L31.7611 23.0856C31.4331 23.2205 31.0209 23.2883 30.5254 23.2883C30.0306 23.2883 29.6329 23.2357 29.3332 23.1321C29.0326 23.0284 28.7971 22.8646 28.6251 22.6405C28.453 22.4172 28.3329 22.1551 28.2649 21.854C28.1976 21.5523 28.1639 21.1804 28.1639 20.7391C28.1639 20.2979 28.1976 19.9245 28.2649 19.6204C28.3329 19.3163 28.453 19.0527 28.6251 18.8294C28.9585 18.398 29.5718 18.1824 30.4634 18.1824C30.6615 18.1824 30.8947 18.2022 31.1631 18.241C31.4315 18.2799 31.6311 18.3279 31.7611 18.3851L31.5264 19.5777C31.1876 19.5046 30.8779 19.4688 30.5957 19.4688C30.3143 19.4688 30.1193 19.4947 30.0099 19.5465C29.8998 19.5983 29.8448 19.7027 29.8448 19.8582V21.9005C30.0482 21.9425 30.2546 21.963 30.4634 21.963C30.9062 21.963 31.3 21.9005 31.6441 21.7763ZM35.7307 21.3313H34.1669V21.9234H36.0832V23.1709H32.6023V18.299H36.0435L35.8485 19.5465H34.1669V20.2011H35.7307V21.3313ZM14.8489 32.9598C14.4367 32.9598 14.1018 32.626 14.1018 32.2152C14.1018 31.8037 14.4367 31.4699 14.8489 31.4699H32.1504C32.5633 31.4699 32.8982 31.8037 32.8982 32.2152C32.8982 32.626 32.5633 32.9598 32.1504 32.9598H14.8489ZM33.7371 12.6672L26.594 7.13913L26.5053 7.22981C25.736 7.99646 24.6731 8.47047 23.5 8.47047C22.3262 8.47047 21.264 7.99646 20.4955 7.22981L20.406 7.13837L13.2621 12.6672H33.7371ZM40.049 14.529H6.951C6.35529 14.529 5.86818 15.0159 5.86818 15.6088V36.0668C5.86435 36.3579 5.98824 36.6269 6.18629 36.8243C6.379 37.0186 6.64894 37.139 6.94641 37.139H40.049C40.3457 37.139 40.6179 37.0171 40.8137 36.822C41.0102 36.6261 41.1318 36.3556 41.1318 36.0599V15.6088C41.1318 15.0106 40.6485 14.529 40.049 14.529ZM23.5 2.44398C23.9963 2.44398 24.4459 2.6444 24.7709 2.96829C24.9383 3.13447 25.071 3.33201 25.1614 3.54951C25.2518 3.76701 25.2982 4.00019 25.2978 4.23562C25.2978 4.73021 25.0967 5.17754 24.7709 5.50219C24.6042 5.66869 24.4061 5.80072 24.188 5.8907C23.9698 5.98067 23.7361 6.02682 23.5 6.0265C23.0037 6.0265 22.5541 5.82607 22.2291 5.50219C21.9041 5.17754 21.7029 4.73021 21.7029 4.23562C21.7029 3.74103 21.9041 3.29217 22.2291 2.96829C22.3958 2.80179 22.5939 2.66976 22.812 2.57978C23.0302 2.4898 23.2639 2.44365 23.5 2.44398Z" fill="white"/>
</g>
<defs>
<filter id="filter0_d_64_259" x="0" y="0" width="47" height="47" filterUnits="userSpaceOnUse" color-interpolation-filters="sRGB">
<feFlood flood-opacity="0" result="BackgroundImageFix"/>
<feColorMatrix in="SourceAlpha" type="matrix" values="0 0 0 0 0 0 0 0 0 0 0 0 0 0 0 0 0 0 127 0" result="hardAlpha"/>
<feOffset dy="4"/>
<feGaussianBlur stdDeviation="2"/>
<feComposite in2="hardAlpha" operator="out"/>
<feColorMatrix type="matrix" values="0 0 0 0 0 0 0 0 0 0 0 0 0 0 0 0 0 0 0.25 0"/>
<feBlend mode="normal" in2="BackgroundImageFix" result="effect1_dropShadow_64_259"/>
<feBlend mode="normal" in="SourceGraphic" in2="effect1_dropShadow_64_259" result="shape"/>
</filter>
<clipPath id="clip0_64_259">
<rect width="39" height="39" fill="white" transform="translate(4)"/>
</clipPath>
</defs>
</svg>
