<svg width="47" height="47" viewBox="0 0 47 47" fill="none" xmlns="http://www.w3.org/2000/svg">
<g filter="url(#filter0_d_102_326)">
<path d="M23.4987 3.069e-06C26.0559 -0.00143308 28.5884 0.50118 30.9513 1.47911C35.7353 3.46878 39.5351 7.27434 41.5176 12.0614L41.5494 12.1376C43.4945 16.8925 43.4831 22.2233 41.5176 26.9699C39.5389 31.7436 35.7458 35.5364 30.972 37.5148C26.1981 39.4931 20.8341 39.4952 16.0587 37.5204C13.6842 36.5428 11.5268 35.1048 9.71067 33.2894C7.89749 31.4781 6.45874 29.3275 5.47651 26.9604L5.44795 26.8842C3.50751 22.1318 3.51777 16.8062 5.47651 12.0614C6.45559 9.68689 7.89458 7.52948 9.71067 5.71329C11.5219 3.9001 13.6725 2.46134 16.0397 1.47911L16.1159 1.45054C18.4591 0.491671 20.9668 -0.00103801 23.4987 3.069e-06ZM19.4803 25.3575C19.3277 25.1953 19.1857 25.0236 19.055 24.8433C18.2298 23.7133 17.4902 22.4373 16.7475 21.2471C16.2079 20.4536 15.9254 19.7457 15.9254 19.1776C15.9254 18.6094 16.2428 17.8667 16.8776 17.7048C16.7865 16.4659 16.7674 15.2228 16.8205 13.9817C16.8561 13.6656 16.9198 13.3533 17.0109 13.0485C17.4043 11.7648 18.2621 10.6738 19.4169 9.98873C19.825 9.72609 20.2629 9.51299 20.7214 9.35392C21.5434 9.03651 21.1467 7.79546 22.0513 7.76689C24.1652 7.72246 27.6503 9.52214 29.0088 11.0076C29.8778 11.9658 30.3715 13.2057 30.399 14.499L30.3133 17.854C30.4982 17.9002 30.667 17.9957 30.8018 18.1305C30.9365 18.2652 31.0321 18.4341 31.0782 18.619C31.1925 19.0728 31.0782 19.695 30.6815 20.5742C30.6815 20.6027 30.6529 20.6027 30.6529 20.6313C29.7801 22.0691 28.8691 23.7355 27.8661 25.075C27.3614 25.7479 26.9456 25.6304 27.3773 26.2748C29.4246 29.0901 33.4651 28.6997 35.9472 30.5756C38.0108 28.2445 39.3823 25.3834 39.9072 22.3147C40.4321 19.246 40.0895 16.0917 38.9181 13.2072L38.8895 13.1437C38.0524 11.1174 36.8251 9.27537 35.2775 7.72246C32.9537 5.40437 29.9984 3.82223 26.7809 3.17363C23.5633 2.52503 20.2259 2.8387 17.1855 4.07548L17.1189 4.10404C15.1004 4.9447 13.267 6.17418 11.723 7.72246C9.40492 10.0463 7.8228 13.0015 7.1742 16.2191C6.5256 19.4367 6.83927 22.7741 8.07604 25.8145L8.10461 25.8812C8.81641 27.595 9.80865 29.1782 11.0406 30.5661C13.5322 28.6902 17.5727 29.0806 19.6105 26.2652C19.966 25.732 19.8739 25.7828 19.4708 25.3575H19.4803Z" fill="white"/>
</g>
<defs>
<filter id="filter0_d_102_326" x="0" y="0" width="47" height="47" filterUnits="userSpaceOnUse" color-interpolation-filters="sRGB">
<feFlood flood-opacity="0" result="BackgroundImageFix"/>
<feColorMatrix in="SourceAlpha" type="matrix" values="0 0 0 0 0 0 0 0 0 0 0 0 0 0 0 0 0 0 127 0" result="hardAlpha"/>
<feOffset dy="4"/>
<feGaussianBlur stdDeviation="2"/>
<feComposite in2="hardAlpha" operator="out"/>
<feColorMatrix type="matrix" values="0 0 0 0 0 0 0 0 0 0 0 0 0 0 0 0 0 0 0.25 0"/>
<feBlend mode="normal" in2="BackgroundImageFix" result="effect1_dropShadow_102_326"/>
<feBlend mode="normal" in="SourceGraphic" in2="effect1_dropShadow_102_326" result="shape"/>
</filter>
</defs>
</svg>
